<svg width="945" height="276" viewBox="0 0 945 276" fill="none" xmlns="http://www.w3.org/2000/svg">
<path d="M13.0586 276H0.799884L1.52588e-05 1H12.2459L13.0586 276Z" fill="#020FEA"/>
<path d="M65.8086 276H43.6098C73.4629 181.59 73.2436 89.9273 43.3905 1H65.5764C91.2238 94.1718 92.1785 185.886 65.8215 276H65.8086Z" fill="#020FEA"/>
<path d="M124.483 276H98.3461C150.428 184.338 150.634 92.6624 98.9008 1H125.231C176.255 92.6624 176.01 184.338 124.47 276H124.483Z" fill="#020FEA"/>
<path d="M189.62 276H152.323C226.208 180.338 226.931 88.663 154.168 1H191.336C258.37 83.0252 257.815 174.688 189.633 276H189.62Z" fill="#020FEA"/>
<path d="M874.719 81.976C898.058 81.976 915.385 87.8842 926.794 99.5873C938.488 111.281 943.82 127.717 943.82 148.141V241.018H907.182V223.313C896.436 235.165 880.508 244.246 857.694 244.246C842.988 244.246 828.959 240.089 818.583 231.886C808.183 223.663 801.509 211.414 801.509 195.401V194.813C801.509 177.638 808.249 164.853 819.863 156.396C831.432 147.972 847.739 143.913 866.793 143.912C883.892 143.912 895.788 146.391 907.476 150.011V147.554C907.476 136.607 904.171 128.477 897.95 123.064C891.704 117.63 882.363 114.797 870.023 114.797C852.587 114.797 840.1 118.567 826.083 124.407L825.103 124.816L824.754 123.812L815.067 95.9261L814.76 95.0424L815.622 94.6771C833.019 87.3051 849.887 81.976 874.719 81.976ZM873.838 168.514C862.358 168.514 853.491 170.843 847.522 175.081C841.6 179.287 838.44 185.433 838.44 193.346V193.933C838.44 201.093 841.513 206.669 846.659 210.485C851.835 214.323 859.165 216.415 867.674 216.415C890.847 216.415 908.063 203.44 908.063 184.246V174.368C899.156 171.012 887.477 168.514 873.838 168.514Z" fill="#01054E" stroke="#01054E" stroke-width="2"/>
<path d="M702.76 84.0311L703.058 84.4667L737.756 135.224L773.035 84.4608L773.333 84.0311H813.675L812.533 85.6161L758.356 160.764L814.882 239.434L816.02 241.018H774.799L774.5 240.587L737.167 186.596L700.122 240.584L699.824 241.018H659.483L660.619 239.435L716.852 161.057L662.673 85.6141L661.537 84.0311H702.76Z" fill="#01054E" stroke="#01054E" stroke-width="2"/>
<path d="M606.197 80.803C654.591 80.803 689.681 117.351 689.681 162.232V162.819C689.681 207.112 654.004 244.541 605.61 244.541C557.806 244.541 522.42 207.996 522.42 163.406V162.819C522.42 117.94 558.095 80.803 606.197 80.803ZM605.61 113.918C577.781 113.918 559.938 135.683 559.938 162.232V162.819C559.938 189.34 579.517 211.427 606.197 211.427C634.618 211.427 652.163 189.657 652.163 163.406V162.819C652.163 136 632.874 113.918 605.61 113.918Z" fill="#01054E" stroke="#01054E" stroke-width="2"/>
<path d="M414.718 33.543C479.801 33.5431 524.913 78.2691 524.913 136.693V137.28C524.913 195.697 479.809 241.018 414.718 241.019H337.104V33.543H414.718ZM375.21 206.143H414.718C436.062 206.143 453.631 198.959 465.86 186.874C478.09 174.789 485.047 157.736 485.047 137.868V137.28C485.047 117.412 478.089 100.209 465.856 87.9766C453.625 75.7452 436.056 68.419 414.718 68.4189H375.21V206.143Z" fill="#01054E" stroke="#01054E" stroke-width="2"/>
<path d="M237.882 0.5L238.03 0.726562L243.308 8.78809L248.587 0.726562L248.736 0.5H253.009V19.9014H248.719V7.82617L243.722 15.1611L243.573 15.3799H242.937L242.788 15.1611L237.844 7.88281V19.9014H233.608V0.5H237.882Z" fill="#020FEA" stroke="#020FEA"/>
<path d="M233.586 0.5V4.49707H227.576V19.9014H223.261V4.49707H217.251V0.5H233.586Z" fill="#020FEA" stroke="#020FEA"/>
</svg>
